# xmcd
#
# Track frame offsets: 
#        150
#        20369
#        34459
#        61680
#        81390
#        93506
#        107529
#        124658
#        141354
#        155167
#        181152
#        204248
#        221394
#        240077
#        256012
#        270082
#        287690
#        298254
#        316497
#        333293
#
# Disc length: 4634 seconds
#
# Revision: 3
# Processed by: cddbd v1.5.2PL0 Copyright (c) Steve Scherf et al.
# Submitted via: ExactAudioCopyFreeDBPlugin 1.0
#
DISCID=16121814
DTITLE=The Mavericks - Gold [CD2-2]
DYEAR=2006
DGENRE=Country
TTITLE0=Blue moon  (1995)
TTITLE1=I don't care (If you don't love me anymore)  (1996)
TTITLE2=La mucara  (1998)
TTITLE3=Dance the night away  (1998)
TTITLE4=Panatella  (1998)
TTITLE5=Someone should tell her  (1998)
TTITLE6=To be with you  (1998)
TTITLE7=I've got this feeling  (1998)
TTITLE8=She does  (1998)
TTITLE9=Fool #1  (1998)
TTITLE10=Save a prayer  (1998)
TTITLE11=Dream river  (1998)
TTITLE12=All I get  (1998)
TTITLE13=(Tonight) The bottle let me down [live]  (1998)
TTITLE14=Rancho Grande [live]  (1998)
TTITLE15=Hot Burrito #1  (1999)
TTITLE16=Think of me (When you're lonely)  (1999)
TTITLE17=Pizziricco  (1999)
TTITLE18=A world without love  (1999)
TTITLE19=Here comes my baby  (1999)
EXTD=YEAR: 2006
EXTT0=
EXTT1=
EXTT2=
EXTT3=
EXTT4=
EXTT5=
EXTT6=
EXTT7=
EXTT8=
EXTT9=
EXTT10=
EXTT11=
EXTT12=
EXTT13=
EXTT14=
EXTT15=
EXTT16=
EXTT17=
EXTT18=
EXTT19=
PLAYORDER=
